<svg xmlns="http://www.w3.org/2000/svg" viewBox="0 0 132.07 40.27"><defs><style>.cls-1{fill:#0000ff;}</style></defs><title>Asset 1</title><g id="Layer_2" data-name="Layer 2"><g id="Layer_13" data-name="Layer 13"><path class="cls-1" d="M20,15.7V5.11C20,0,13.69,0,8.63,0H0V40.27H8.63c5.06,0,11.41,0,11.41-5.11V24.53c0-2.49-1.5-3.76-3.63-4.42C18.54,19.46,20,18.18,20,15.7Zm-8.62,8.83V35.16c0,.65.1,3.73-2.79,3.73V20.81C11.52,20.81,11.42,23.89,11.42,24.53ZM8.63,1.39c2.89,0,2.79,3.08,2.79,3.72V15.7c0,.64.1,3.72-2.79,3.72Z"/><path class="cls-1" d="M43.42,15.7V5.11C43.42,0,37.07,0,32,0H23.38V40.27H32V20.81c2.9,0,2.79,3.08,2.79,3.72V40.27h8.63V24.53c0-2.49-1.51-3.76-3.63-4.42C41.91,19.46,43.42,18.18,43.42,15.7ZM32,1.39c2.9,0,2.79,3.08,2.79,3.72V15.7c0,.64.11,3.72-2.79,3.72Z"/><path class="cls-1" d="M55.38,20.14c4.24,0,7,0,8.62-4.4L69.73,0H61.11L55.38,15.74V0H46.75V40.27h8.63V24.53l5.73,15.74h8.62L64,24.53C62.4,20.14,59.62,20.14,55.38,20.14Z"/><path class="cls-1" d="M110.36,15.7V5.11c0-5.11-5.58-5.11-10-5.11s-10,0-10,5.11V15.7c0,4.2,4.28,4.94,8.62,5.08v0c2.9,0,2.79,3.08,2.79,3.72V35.16c0,.65,0,3.73-1.39,3.73s-1.4-3.08-1.4-3.73V24.53H90.32V35.16c0,5.11,5.57,5.11,10,5.11s10,0,10-5.11V24.53c0-4.2-4.29-5-8.63-5.08v0c-2.89,0-2.79-3.08-2.79-3.72V5.11c0-.64,0-3.72,1.4-3.72s1.39,3.08,1.39,3.72V15.7Z"/><polygon class="cls-1" points="88.65 1.39 88.65 0 80.02 0 71.4 0 71.4 1.39 71.4 40.27 80.02 40.27 80.02 20.11 88.65 20.11 88.65 18.73 80.02 18.73 80.02 1.39 88.65 1.39"/><polygon class="cls-1" points="132.07 0 126.36 0 117.73 0 112.03 0 112.03 1.39 117.73 1.39 117.73 40.27 126.36 40.27 126.36 1.39 132.07 1.39 132.07 0"/></g></g></svg>
